<?xml version="1.0" encoding="UTF-8"?>
<svg id="Art" xmlns="http://www.w3.org/2000/svg" version="1.1" viewBox="0 0 800 800">
  <!-- Generator: Adobe Illustrator 29.8.6, SVG Export Plug-In . SVG Version: 2.1.1 Build 1)  -->
  <defs>
    <style>
      .st0 {
        fill: #0052f2;
      }

      .st1 {
        fill: #fff;
        stroke: #000;
        stroke-miterlimit: 10;
      }
    </style>
  </defs>
  <circle class="st1" cx="408" cy="394" r="318.2"/>
  <path id="logo_amplitude_mark-circle" class="st0" d="M400,0C179.1,0,0,179.1,0,400s179.1,400,400,400,400-179.1,400-400S620.9,0,400,0ZM674.3,412.2h-190.1c13.6,54.6,38.6,185.1,72.9,185.1s38-40.6,61.5-106.3c3.8-10.8,9-25.7,14.9-41.8,1.4-3.7,4.9-6.3,8.8-6.3,6.2,0,10.6,6,8.7,11.9-3.4,10.8-6.8,23.1-9.9,37.2-21.5,96.3-46.8,158.9-98,158.9s-91.8-149.1-116.3-238.7h-174.1s-18.6,58.2-34.5,110.9c-2.3,7.7-9.4,12.9-17.4,12.9h0c-11.1,0-19.7-9.9-17.9-20.9,4.8-30.9,11.1-63.9,19.4-103.1h-70.2c-15.3,0-27.7-12.4-27.7-27.7h0c0-15.4,12.6-27.9,28-27.7l82.1,1.2c29.3-119.7,72.9-235.7,132.4-235.7s103.1,154.1,124.7,238.8c71.6,1.6,147.9,4.3,204.3,8.8,11,.9,19.6,10.1,19.6,21.2h0c0,11.7-9.5,21.2-21.2,21.2ZM344.9,175.6c-18.5,0-52,74.7-79.6,183,6.4,0,68.8,0,147.4,1.3-23.2-85.4-51-184.3-67.8-184.3Z"/>
</svg>